<svg width="354" height="354" viewBox="0 0 354 354" fill="none" xmlns="http://www.w3.org/2000/svg">
<g filter="url(#filter0_d)">
<path d="M339.978 163.852C338.53 163.865 337.107 164.222 335.824 164.894L323.13 152.186C319.748 128.342 310.565 105.693 296.386 86.2266L301.113 77.1125C302.889 77.2388 304.664 76.8418 306.217 75.9706C307.771 75.0994 309.035 73.7921 309.853 72.2104C310.672 70.6286 311.009 68.8417 310.823 67.0703C310.638 65.299 309.937 63.621 308.808 62.2436C308.45 61.8011 308.054 61.3915 307.623 61.0197C306.705 60.2425 305.642 59.6547 304.496 59.2901C303.35 58.9255 302.143 58.7914 300.945 58.8955C299.747 58.9996 298.581 59.3398 297.515 59.8966C296.448 60.4533 295.503 61.2156 294.733 62.1394L294.668 62.2436H274.526C252.895 43.0787 226.11 30.6914 197.499 26.6206L184.791 13.926C185.471 12.6466 185.828 11.2211 185.833 9.77256C185.821 8.40078 185.501 7.04926 184.894 5.81878C184.288 4.58829 183.411 3.51058 182.33 2.66602C181.249 1.82145 179.991 1.23181 178.651 0.941061C177.31 0.650312 175.921 0.665957 174.587 0.986827C173.253 1.3077 172.009 1.92552 170.948 2.79422C169.886 3.66292 169.034 4.76009 168.455 6.00392C167.877 7.24775 167.586 8.60616 167.606 9.97785C167.625 11.3495 167.954 12.6991 168.568 13.926L155.861 26.6206C127.259 30.6702 100.479 43.035 78.8466 62.1785H58.7176C58.3645 61.7361 57.9724 61.3265 57.5458 60.9546C56.6275 60.1754 55.5639 59.5859 54.4165 59.2202C53.2691 58.8545 52.0606 58.7198 50.8608 58.8239C49.661 58.928 48.4938 59.2689 47.4265 59.8268C46.3592 60.3847 45.4131 61.1486 44.6428 62.0743C44.6241 62.1108 44.6023 62.1457 44.5777 62.1785C43.4454 63.5548 42.7414 65.2328 42.5529 67.0051C42.3643 68.7773 42.6996 70.5659 43.517 72.1496C44.3345 73.7333 45.5984 75.0426 47.1522 75.9154C48.7061 76.7883 50.4818 77.1864 52.2596 77.0605L56.9859 86.1745C42.795 105.655 33.607 128.323 30.2296 152.186L17.535 164.894C16.3081 164.28 14.9585 163.951 13.5869 163.932C12.2152 163.912 10.8568 164.203 9.61293 164.781C8.36909 165.36 7.27192 166.212 6.40322 167.274C5.53452 168.335 4.91671 169.579 4.59583 170.913C4.27496 172.247 4.25932 173.636 4.55007 174.977C4.84082 176.317 5.43046 177.575 6.27503 178.656C7.11959 179.737 8.1973 180.614 9.42778 181.22C10.6583 181.827 12.0098 182.147 13.3816 182.159C14.8301 182.154 16.2556 181.796 17.535 181.117L30.2296 193.825C33.6113 217.669 42.7944 240.318 56.9729 259.785L50.4628 272.284C48.9998 272.486 47.6079 273.041 46.4069 273.9C45.2058 274.76 44.2316 275.898 43.5681 277.218C42.9047 278.537 42.5718 279.998 42.5981 281.475C42.6245 282.951 43.0093 284.4 43.7194 285.695C44.4295 286.989 45.4437 288.092 46.6747 288.909C47.9056 289.725 49.3165 290.229 50.7857 290.379C52.255 290.529 53.7386 290.32 55.109 289.769C56.4794 289.218 57.6955 288.343 58.6525 287.218C59.4803 286.231 60.0844 285.076 60.4232 283.833H78.8336C100.461 303.003 127.247 315.391 155.861 319.456L168.568 332.15C167.954 333.377 167.625 334.727 167.606 336.099C167.586 337.47 167.877 338.829 168.455 340.072C169.034 341.316 169.886 342.413 170.948 343.282C172.009 344.151 173.253 344.769 174.587 345.09C175.921 345.41 177.31 345.426 178.651 345.135C179.991 344.845 181.249 344.255 182.33 343.41C183.411 342.566 184.288 341.488 184.894 340.258C185.501 339.027 185.821 337.676 185.833 336.304C185.826 334.856 185.469 333.43 184.791 332.15L197.499 319.456C226.112 315.391 252.898 303.003 274.526 283.833H294.642C294.996 284.278 295.393 284.688 295.827 285.057C296.745 285.834 297.807 286.422 298.953 286.786C300.1 287.151 301.306 287.285 302.505 287.181C303.703 287.077 304.869 286.737 305.935 286.18C307.001 285.623 307.946 284.861 308.717 283.937L308.782 283.833C309.911 282.455 310.611 280.777 310.797 279.006C310.983 277.235 310.646 275.448 309.827 273.866C309.009 272.284 307.745 270.977 306.191 270.106C304.638 269.235 302.863 268.838 301.087 268.964L296.36 259.85C310.539 240.383 319.722 217.734 323.104 193.89L335.798 181.182C337.078 181.86 338.503 182.217 339.952 182.224C342.379 182.224 344.707 181.26 346.424 179.543C348.141 177.826 349.105 175.498 349.105 173.071C349.105 170.643 348.141 168.315 346.424 166.598C344.707 164.882 342.379 163.918 339.952 163.918L339.978 163.852ZM29.3312 185.843L21.1936 177.719C22.0701 176.305 22.5344 174.675 22.5344 173.012C22.5344 171.349 22.0701 169.719 21.1936 168.305L29.3312 160.168C28.9666 164.399 28.7453 168.683 28.7453 173.006C28.7453 177.328 28.9666 181.612 29.3312 185.843ZM292.611 67.1782C292.476 68.6432 292.699 70.119 293.259 71.4794C293.819 72.8398 294.7 74.0444 295.827 74.9903C295.996 75.1335 296.191 75.2377 296.373 75.3679L293.04 81.8779C288.989 76.719 284.605 71.8304 279.916 67.2433L292.611 67.1782ZM171.927 17.5195C173.341 18.396 174.971 18.8603 176.634 18.8603C178.297 18.8603 179.927 18.396 181.341 17.5195L189.465 25.6571C185.234 25.2925 180.963 25.0712 176.628 25.0712C172.292 25.0712 168.021 25.2925 163.79 25.6571L171.927 17.5195ZM58.6525 73.8575C60.207 71.9953 60.9648 69.5955 60.7617 67.1782H73.4303C68.7466 71.7625 64.3709 76.6514 60.3321 81.8128L56.9989 75.3028C57.601 74.8825 58.1554 74.3979 58.6525 73.8575ZM60.4492 278.833C59.9512 277.073 58.935 275.503 57.5327 274.328C56.9684 273.861 56.3472 273.467 55.6839 273.156L60.319 264.211C64.3622 269.369 68.7422 274.254 73.4303 278.833H60.4492ZM181.38 328.492C179.966 327.615 178.336 327.151 176.673 327.151C175.01 327.151 173.38 327.615 171.966 328.492L163.842 320.406C168.073 320.771 172.357 321.005 176.68 321.005C181.002 321.005 185.286 320.771 189.517 320.406L181.38 328.492ZM279.291 108.361L238.122 67.1782H252.782C264.942 75.966 275.51 86.7676 284.03 99.1165L279.291 108.361ZM287.22 103.921C292.044 111.594 296.054 119.75 299.186 128.256L283.015 112.085L287.22 103.921ZM287.012 176.117C278.728 182.914 269.715 188.77 260.139 193.577L261.219 192.731C264.061 190.478 266.766 188.056 269.318 185.479C270.965 183.825 272.525 182.087 273.992 180.271C274.994 178.969 275.489 178.331 275.489 178.331C275.489 178.331 274.877 178.93 273.692 179.997C272.508 181.065 270.685 182.523 268.341 184.333C265.998 186.143 263.042 188.174 259.566 190.361C257.821 191.442 255.985 192.614 253.941 193.669C251.897 194.723 249.853 195.986 247.561 197.041L244.124 198.72C242.926 199.267 241.689 199.749 240.452 200.283L236.676 201.923L232.692 203.369L228.604 204.84L224.32 206.142L219.945 207.444L215.441 208.498L210.844 209.553C209.295 209.905 207.707 210.074 206.131 210.347L203.527 210.764C201.496 211.024 199.426 211.259 197.33 211.467C204.261 207.74 210.054 202.207 214.095 195.454C218.135 188.701 220.272 180.979 220.279 173.11C220.286 165.24 218.162 157.515 214.133 150.755C210.104 143.995 204.32 138.452 197.395 134.714C203.814 135.351 209.881 136.276 215.623 137.409L219.958 138.411L224.333 139.713L228.617 141.015L232.705 142.5L236.689 143.945L240.478 145.559C241.78 146.093 242.952 146.575 244.15 147.109L247.587 148.801C249.879 149.856 251.962 151.054 253.967 152.173C255.972 153.293 257.873 154.4 259.592 155.481C263.068 157.655 265.998 159.725 268.367 161.509C270.737 163.293 272.521 164.79 273.718 165.845C274.916 166.899 275.515 167.511 275.515 167.511C275.515 167.511 275.021 166.821 274.018 165.571C272.548 163.758 270.988 162.019 269.344 160.363C266.791 157.791 264.087 155.373 261.245 153.124C263.498 154.296 265.646 155.455 267.612 156.587C274.451 160.521 280.949 165.02 287.038 170.037L227.692 173.149L287.012 176.117ZM66.1911 170.011C74.2069 163.416 82.9114 157.706 92.1532 152.981C89.2985 155.238 86.5852 157.669 84.0286 160.259C82.3838 161.911 80.8279 163.65 79.3674 165.467C78.3519 166.769 77.8701 167.407 77.8701 167.407C77.8701 167.407 78.469 166.808 79.6539 165.74C80.8387 164.673 82.6615 163.215 85.0182 161.405C87.3748 159.595 90.3173 157.564 93.7937 155.376C95.5384 154.309 97.3612 153.137 99.4054 152.069C101.45 151.002 103.507 149.765 105.785 148.71L109.236 147.018C110.42 146.484 111.67 145.989 112.907 145.468L116.683 143.841L120.68 142.395L124.769 140.924L129.052 139.622L133.414 138.32L137.932 137.265L139.416 136.927C144.685 135.937 150.227 135.152 156.043 134.57C149.099 138.294 143.294 143.831 139.245 150.59C135.196 157.35 133.054 165.081 133.047 172.96C133.041 180.84 135.169 188.574 139.207 195.34C143.244 202.107 149.04 207.653 155.978 211.389C153.556 211.142 151.186 210.868 148.856 210.543L147.241 210.295C145.653 210.022 144.064 209.84 142.528 209.501L137.932 208.446L133.414 207.392L129.052 206.09L124.769 204.853L120.68 203.369L116.683 201.923L112.907 200.309C111.605 199.775 110.42 199.293 109.236 198.759L105.785 197.067C103.507 196.012 101.424 194.814 99.4054 193.708C97.3873 192.601 95.4993 191.468 93.7937 190.387C90.3173 188.213 87.3748 186.143 85.0182 184.359C82.6615 182.575 80.8517 181.091 79.6539 180.036C78.456 178.982 77.8701 178.37 77.8701 178.37C77.8701 178.37 78.3519 179.06 79.3674 180.31C80.8279 182.127 82.3838 183.866 84.0286 185.518C86.5813 188.09 89.2856 190.508 92.1271 192.757L93.1818 193.59C90.5777 192.288 88.0649 190.908 85.7863 189.593C78.903 185.634 72.3693 181.095 66.2562 176.026L123.297 173.032L66.1911 170.011ZM146.707 151.861C146.707 150.256 147.162 148.683 148.02 147.327C148.878 145.97 150.103 144.885 151.554 144.198C153.005 143.51 154.62 143.249 156.214 143.444C157.807 143.639 159.312 144.283 160.554 145.3C161.796 146.317 162.723 147.666 163.229 149.189C163.734 150.713 163.796 152.349 163.408 153.906C163.02 155.464 162.198 156.879 161.037 157.988C159.876 159.096 158.424 159.852 156.85 160.168C156.995 160.645 157.074 161.14 157.084 161.639C157.088 162.561 156.853 163.469 156.403 164.274C155.952 165.078 155.301 165.753 154.513 166.232C153.725 166.711 152.827 166.978 151.905 167.008C150.983 167.038 150.069 166.828 149.252 166.401C148.435 165.973 147.742 165.342 147.241 164.568C146.74 163.793 146.447 162.903 146.392 161.982C146.336 161.062 146.519 160.142 146.924 159.313C147.328 158.484 147.94 157.774 148.699 157.251C147.422 155.745 146.717 153.836 146.707 151.861ZM179.258 197.692C185.422 194.313 190.327 189.028 193.239 182.629C196.151 176.23 196.912 169.061 195.41 162.193C193.908 155.325 190.222 149.128 184.905 144.529C179.588 139.93 172.925 137.176 165.912 136.68C172.461 134.701 179.423 134.53 186.062 136.184C192.7 137.838 198.768 141.256 203.623 146.075C208.479 150.895 211.941 156.937 213.644 163.563C215.348 170.189 215.228 177.152 213.299 183.716C211.369 190.279 207.702 196.2 202.684 200.85C197.666 205.5 191.484 208.707 184.793 210.133C178.102 211.558 171.15 211.148 164.673 208.947C158.195 206.745 152.433 202.834 147.996 197.627C152.775 200.249 158.136 201.629 163.586 201.64C169.037 201.651 174.403 200.294 179.193 197.692H179.258ZM176.745 123.594C161.195 123.544 145.688 125.226 130.51 128.607L162.279 67.1782H191.223L222.979 128.607C207.78 125.221 192.251 123.539 176.68 123.594H176.745ZM124.065 130.183C112.854 133.099 101.953 137.097 91.5152 142.122L76.477 113.035L122.321 67.1782H156.577L124.065 130.183ZM124.065 215.829L156.616 278.833H122.321L76.477 232.989L91.5152 203.902C101.933 208.918 112.812 212.913 124 215.829H124.065ZM130.576 217.404C161.028 224.084 192.566 224.084 223.018 217.404L191.262 278.833H162.201L130.576 217.404ZM229.528 215.829C240.713 212.913 251.587 208.919 262 203.902L277.052 232.989L231.039 278.833H196.783L229.528 215.829ZM229.528 130.183L196.978 67.1782H231.039L276.895 113.035L261.844 142.122C251.432 137.101 240.557 133.103 229.372 130.183H229.528ZM233.122 62.1785L221.404 50.4604C229.751 53.5403 237.761 57.4668 245.309 62.1785H233.122ZM226.052 62.1785H194.205L184.192 42.8176C193.285 43.3323 202.297 44.8074 211.079 47.2184L226.052 62.1785ZM188.58 62.1785H164.792L174.909 42.6483C175.495 42.6483 176.081 42.6483 176.68 42.6483C177.279 42.6483 177.865 42.6483 178.463 42.6483L188.58 62.1785ZM159.181 62.1785H127.32L142.281 47.2184C151.067 44.8064 160.083 43.3313 169.18 42.8176L159.181 62.1785ZM120.264 62.1785H108.038C115.581 57.4667 123.586 53.5402 131.93 50.4604L120.264 62.1785ZM115.264 67.1782L74.0552 108.361L69.2769 99.0645C77.7948 86.7137 88.3634 75.9117 100.525 67.1261L115.264 67.1782ZM70.3706 112.085L54.1605 128.256C57.2974 119.752 61.3073 111.597 66.126 103.921L70.3706 112.085ZM72.7793 116.759L87.1014 144.374C74.268 150.881 62.4838 159.277 52.1424 169.282L51.6607 169.764C49.6425 171.795 48.653 173.006 48.653 173.006C48.653 173.006 49.6425 174.216 51.6607 176.248L52.1424 176.729C62.4631 186.733 74.2251 195.133 87.0363 201.65L72.7532 229.266L50.8404 207.405C44.6604 184.888 44.6604 161.123 50.8404 138.607L72.7793 116.759ZM70.3706 233.94L66.152 242.09C61.3282 234.417 57.318 226.261 54.1866 217.756L70.3706 233.94ZM74.0813 237.65L115.264 278.833H100.577C88.4173 270.045 77.849 259.244 69.3289 246.895L74.0813 237.65ZM120.277 283.833L131.995 295.551C123.645 292.476 115.634 288.55 108.09 283.833H120.277ZM127.347 283.833H159.168L169.18 303.207C160.084 302.682 151.068 301.203 142.281 298.793L127.347 283.833ZM164.818 283.833H188.593L178.489 303.363C177.891 303.363 177.305 303.363 176.706 303.363C176.107 303.363 175.521 303.363 174.935 303.363L164.818 283.833ZM184.205 303.207L194.231 283.833H226.065L211.079 298.793C202.292 301.203 193.276 302.682 184.179 303.207H184.205ZM221.456 295.525L233.174 283.807H245.387C237.817 288.528 229.78 292.455 221.404 295.525H221.456ZM252.808 278.833H238.122L279.304 237.65L284.082 246.895C275.55 259.251 264.964 270.053 252.782 278.833H252.808ZM294.707 272.232C293.932 273.148 293.345 274.209 292.981 275.353C292.616 276.497 292.482 277.702 292.585 278.898H279.916C284.598 274.294 288.973 269.388 293.014 264.211L296.347 270.656C295.734 271.107 295.182 271.637 294.707 272.232ZM287.233 242.155L283.015 234.005L299.199 217.821C296.063 226.304 292.053 234.438 287.233 242.09V242.155ZM302.467 207.47L280.606 229.266L266.284 201.637C292.207 188.122 304.667 172.993 304.667 172.993C304.667 172.993 292.207 157.863 266.284 144.348L280.606 116.733L302.467 138.593C308.664 161.108 308.664 184.878 302.467 207.392V207.47ZM315.279 165.727C315.188 164.53 315.083 163.201 314.966 161.73C314.89 160.126 314.699 158.529 314.393 156.952C313.781 153.541 313.091 149.622 312.31 145.234C311.086 140.95 309.888 136.12 308.261 131.055L305.214 123.243C304.68 121.941 304.186 120.509 303.587 119.141C302.988 117.774 302.219 116.446 301.529 115.066C289.937 90.6955 271.399 70.2955 248.246 56.4303C225.092 42.5651 198.357 35.8535 171.4 37.1391C144.444 38.4248 118.468 47.6503 96.7397 63.656C75.0111 79.6617 58.4986 101.733 49.278 127.097C48.4968 129.414 47.4552 131.654 46.8693 134.023C46.2834 136.393 45.5673 138.763 45.0204 141.106C43.5491 145.807 43.1195 150.546 42.2862 155.233L41.7263 158.762C41.6222 159.973 41.5831 161.209 41.505 162.433C41.3618 164.881 41.2185 167.329 41.0883 169.764L40.9842 171.586V172.498V172.954C40.9819 172.993 40.9819 173.032 40.9842 173.071V173.279L41.1404 176.834C41.2446 179.19 41.3487 181.547 41.4529 183.877C43.2722 207.979 51.3667 231.185 64.9321 251.189C78.4974 271.193 97.0614 287.3 118.779 297.908L122.855 299.978C124.222 300.564 125.602 301.071 126.943 301.605L134.755 304.639C139.859 306.266 144.65 307.464 148.934 308.701L160.652 310.771C162.229 311.078 163.826 311.269 165.43 311.344L169.441 311.657L176.784 312.23L169.427 312.06L165.404 311.969C163.793 311.987 162.182 311.882 160.587 311.657L148.491 310.068C144.116 309.001 139.221 307.998 133.974 306.553L125.94 303.793C124.547 303.298 123.115 302.855 121.696 302.308L117.464 300.381C104.452 294.766 92.4451 287.06 81.9194 277.57C69.2713 266.413 58.7158 253.089 50.7493 238.223C41.7955 221.547 36.3623 203.209 34.7866 184.346C34.6434 181.898 34.5002 179.438 34.37 176.964L34.1616 173.279V172.198V171.287L34.3049 169.373L34.6174 162.043C34.6825 160.819 34.7085 159.595 34.8127 158.358L35.3465 154.556C36.1407 149.504 36.6485 144.296 38.0677 139.388C38.6926 136.914 39.3697 134.414 39.9686 131.927C40.5675 129.44 41.6482 127.045 42.4685 124.597C49.4351 104.778 60.7661 86.7776 75.6243 71.9262C90.4824 57.0749 108.488 45.752 128.31 38.7944C147.401 31.9839 167.734 29.3596 187.929 31.0995C206.827 32.6623 225.202 38.0958 241.91 47.0621C256.785 55.0323 270.122 65.587 281.296 78.2323C290.796 88.7749 298.502 100.805 304.107 113.842C304.758 115.274 305.409 116.681 306.034 118.074C306.659 119.467 307.037 120.925 307.532 122.305C308.478 125.092 309.394 127.774 310.279 130.352C311.724 135.56 312.74 140.494 313.794 144.869C314.367 149.335 314.888 153.319 315.331 156.796C315.557 158.391 315.661 160.002 315.643 161.613C315.643 163.097 315.708 164.438 315.734 165.649C315.839 170.441 315.904 173.006 315.904 173.006C315.904 173.006 315.656 170.454 315.279 165.662V165.727ZM332.205 177.784L324.067 185.909C324.432 181.677 324.666 177.406 324.666 173.071C324.666 168.735 324.432 164.464 324.067 160.233L332.205 168.37C331.328 169.784 330.864 171.414 330.864 173.077C330.864 174.74 331.328 176.371 332.205 177.784Z" fill="white"/>
</g>
<defs>
<filter id="filter0_d" x="0.343018" y="0.734009" width="352.762" height="352.608" filterUnits="userSpaceOnUse" color-interpolation-filters="sRGB">
<feFlood flood-opacity="0" result="BackgroundImageFix"/>
<feColorMatrix in="SourceAlpha" type="matrix" values="0 0 0 0 0 0 0 0 0 0 0 0 0 0 0 0 0 0 127 0"/>
<feOffset dy="4"/>
<feGaussianBlur stdDeviation="2"/>
<feColorMatrix type="matrix" values="0 0 0 0 0 0 0 0 0 0 0 0 0 0 0 0 0 0 0.25 0"/>
<feBlend mode="normal" in2="BackgroundImageFix" result="effect1_dropShadow"/>
<feBlend mode="normal" in="SourceGraphic" in2="effect1_dropShadow" result="shape"/>
</filter>
</defs>
</svg>
